<?xml version="1.0" encoding="UTF-8"?>
<svg xmlns="http://www.w3.org/2000/svg" xmlns:xlink="http://www.w3.org/1999/xlink" style="display: none;">
  <!-- Navigation Icons -->
  <symbol id="icon-menu" viewBox="0 0 24 24">
    <path d="M3 18h18v-2H3v2zm0-5h18v-2H3v2zm0-7v2h18V6H3z" fill="currentColor"/>
  </symbol>
  
  <symbol id="icon-close" viewBox="0 0 24 24">
    <path d="M19 6.41L17.59 5 12 10.59 6.41 5 5 6.41 10.59 12 5 17.59 6.41 19 12 13.41 17.59 19 19 17.59 13.41 12z" fill="currentColor"/>
  </symbol>
  
  <symbol id="icon-search" viewBox="0 0 24 24">
    <path d="M15.5 14h-.79l-.28-.27C15.41 12.59 16 11.11 16 9.5 16 5.91 13.09 3 9.5 3S3 5.91 3 9.5 5.91 16 9.5 16c1.61 0 3.09-.59 4.23-1.57l.27.28v.79l5 4.99L20.49 19l-4.99-5zm-6 0C7.01 14 5 11.99 5 9.5S7.01 5 9.5 5 14 7.01 14 9.5 11.99 14 9.5 14z" fill="currentColor"/>
  </symbol>
  
  <symbol id="icon-chevron-right" viewBox="0 0 24 24">
    <path d="M10 6L8.59 7.41 13.17 12l-4.58 4.59L10 18l6-6z" fill="currentColor"/>
  </symbol>
  
  <symbol id="icon-chevron-left" viewBox="0 0 24 24">
    <path d="M15.41 7.41L14 6l-6 6 6 6 1.41-1.41L10.83 12z" fill="currentColor"/>
  </symbol>
  
  <!-- Financial Icons (Credible Specific) -->
  <symbol id="icon-credit-score" viewBox="0 0 24 24">
    <path d="M20 4H4c-1.11 0-1.99.89-1.99 2L2 18c0 1.11.89 2 2 2h16c1.11 0 2-.89 2-2V6c0-1.11-.89-2-2-2zm0 14H4v-6h16v6zm0-10H4V6h16v2z" fill="currentColor"/>
    <path d="M8 12h8v2H8z" fill="currentColor"/>
  </symbol>
  
  <symbol id="icon-coins" viewBox="0 0 24 24">
    <path d="M12 2C6.48 2 2 6.48 2 12s4.48 10 10 10 10-4.48 10-10S17.52 2 12 2zm0 18c-4.41 0-8-3.59-8-8s3.59-8 8-8 8 3.59 8 8-3.59 8-8 8z" fill="currentColor"/>
    <circle cx="8.5" cy="9.5" r="1.5" fill="currentColor"/>
    <circle cx="15.5" cy="14.5" r="1.5" fill="currentColor"/>
    <path d="M12 15.5c1.93 0 3.5-1.57 3.5-3.5S13.93 8.5 12 8.5 8.5 10.07 8.5 12s1.57 3.5 3.5 3.5z" fill="currentColor"/>
  </symbol>
  
  <symbol id="icon-loan" viewBox="0 0 24 24">
    <path d="M19 5h-2V3H7v2H5c-1.1 0-2 .9-2 2v1c0 2.55 1.92 4.63 4.39 4.94.63 1.5 1.98 2.63 3.61 2.96V19H7v2h10v-2h-4v-3.1c1.63-.33 2.98-1.46 3.61-2.96C19.08 12.63 21 10.55 21 8V7c0-1.1-.9-2-2-2zM5 8V7h2v3.82C5.84 10.4 5 9.3 5 8zm14 0c0 1.3-.84 2.4-2 2.82V7h2v1z" fill="currentColor"/>
  </symbol>
  
  <symbol id="icon-bank" viewBox="0 0 24 24">
    <path d="M12 2L2 8v2h2v10H2v2h20v-2h-2V10h2V8L12 2zm4 18H8v-4h8v4zm0-6H8v-4h8v4zm-4-6.75L16.25 10H7.75L12 7.25z" fill="currentColor"/>
  </symbol>
  
  <symbol id="icon-wallet" viewBox="0 0 24 24">
    <path d="M18 4H6C3.79 4 2 5.79 2 8v8c0 2.21 1.79 4 4 4h12c2.21 0 4-1.79 4-4V8c0-2.21-1.79-4-4-4zm-1.86 9.77c-.24.2-.57.28-.88.2l-2.18-.46c-.15-.03-.29-.08-.41-.16-.22-.14-.35-.37-.35-.64v-2.26c0-.41.34-.75.75-.75s.75.34.75.75v1.66l1.93.41c.08.02.16.03.23.03.22 0 .42-.10.55-.27.2-.24.27-.57.18-.88l-.74-2.68c-.09-.34-.39-.57-.74-.57H6c-1.66 0-3 1.34-3 3v5c0 1.66 1.34 3 3 3h12c1.66 0 3-1.34 3-3v-5c0-1.66-1.34-3-3-3h-.5c-.41 0-.75.34-.75.75s.34.75.75.75H18c.83 0 1.5.67 1.5 1.5v5c0 .83-.67 1.5-1.5 1.5H6c-.83 0-1.5-.67-1.5-1.5v-5c0-.83.67-1.5 1.5-1.5h9.42l.58 2.1c.13.48.07.98-.16 1.41z" fill="currentColor"/>
  </symbol>
  
  <!-- Common Icons -->
  <symbol id="icon-user" viewBox="0 0 24 24">
    <path d="M12 12c2.21 0 4-1.79 4-4s-1.79-4-4-4-4 1.79-4 4 1.79 4 4 4zm0 2c-2.67 0-8 1.34-8 4v2h16v-2c0-2.66-5.33-4-8-4z" fill="currentColor"/>
  </symbol>
  
  <symbol id="icon-phone" viewBox="0 0 24 24">
    <path d="M6.62 10.79c1.44 2.83 3.76 5.14 6.59 6.59l2.2-2.2c.27-.27.67-.36 1.02-.24 1.12.37 2.33.57 3.57.57.55 0 1 .45 1 1V20c0 .55-.45 1-1 1-9.39 0-17-7.61-17-17 0-.55.45-1 1-1h3.5c.55 0 1 .45 1 1 0 1.25.2 2.45.57 3.57.11.35.03.74-.25 1.02l-2.2 2.2z" fill="currentColor"/>
  </symbol>
  
  <symbol id="icon-email" viewBox="0 0 24 24">
    <path d="M20 4H4c-1.1 0-1.99.9-1.99 2L2 18c0 1.1.9 2 2 2h16c1.1 0 2-.9 2-2V6c0-1.1-.9-2-2-2zm0 14H4V8l8 5 8-5v10zm-8-7L4 6h16l-8 5z" fill="currentColor"/>
  </symbol>
  
  <symbol id="icon-star" viewBox="0 0 24 24">
    <path d="M12 17.27L18.18 21l-1.64-7.03L22 9.24l-7.19-.61L12 2 9.19 8.63 2 9.24l5.46 4.73L5.82 21z" fill="currentColor"/>
  </symbol>
  
  <!-- Arrow Icons -->
  <symbol id="icon-arrow-forward" viewBox="0 0 24 24">
    <path d="M12 4l-1.41 1.41L16.17 11H4v2h12.17l-5.58 5.59L12 20l8-8z" fill="currentColor"/>
  </symbol>
  
  <symbol id="icon-arrow-back" viewBox="0 0 24 24">
    <path d="M20 11H7.83l5.59-5.59L12 4l-8 8 8 8 1.41-1.41L7.83 13H20z" fill="currentColor"/>
  </symbol>
</svg>
